<?xml version="1.0" encoding="UTF-8"?>
<svg id="Capa_1" xmlns="http://www.w3.org/2000/svg" xmlns:xlink="http://www.w3.org/1999/xlink" version="1.1" viewBox="0 0 110.61 119.05">
  <!-- Generator: Adobe Illustrator 29.8.1, SVG Export Plug-In . SVG Version: 2.1.1 Build 2)  -->
  <defs>
    <style>
      .st0 {
        fill: none;
      }

      .st1 {
        clip-path: url(#clippath);
      }
    </style>
    <clipPath id="clippath">
      <rect class="st0" width="110.61" height="119.05"/>
    </clipPath>
  </defs>
  <g class="st1">
    <g>
      <g>
        <path d="M-.78,24.66c0,1.61.73,2.88,2.19,3.82,1.46.94,3.22,1.71,5.29,2.3,2.06.59,4.13,1.18,6.19,1.77,2.06.59,3.8,1.66,5.23,3.2,1.42,1.54,2.13,3.57,2.13,6.07,0,3.07-1.21,5.57-3.64,7.49-2.42,1.92-5.56,2.88-9.4,2.88-3.46,0-6.4-.77-8.82-2.3-2.42-1.54-4.12-3.53-5.08-5.98l4.03-2.38c.67,1.87,1.88,3.35,3.64,4.43,1.75,1.08,3.83,1.62,6.23,1.62s4.32-.47,5.9-1.4c1.58-.93,2.38-2.39,2.38-4.35,0-1.63-.72-2.92-2.16-3.88-1.44-.96-3.19-1.73-5.26-2.32-2.06-.59-4.13-1.18-6.19-1.77-2.06-.59-3.81-1.64-5.25-3.15-1.44-1.51-2.16-3.49-2.16-5.94,0-2.93,1.16-5.38,3.49-7.34,2.33-1.97,5.27-2.95,8.82-2.95,2.93,0,5.5.66,7.7,1.98,2.21,1.32,3.84,3.11,4.9,5.36l-3.96,2.3c-1.39-3.36-4.27-5.04-8.64-5.04-2.06,0-3.84.48-5.33,1.45-1.49.97-2.23,2.35-2.23,4.14Z"/>
        <path d="M45.8,19.93h-10.37v21.82c0,1.97.38,3.37,1.15,4.21.77.84,1.92,1.27,3.46,1.3,1.54.02,3.46-.01,5.76-.11v4.18c-5.04.77-8.82.41-11.34-1.08s-3.78-4.32-3.78-8.5v-21.82h-7.56v-4.61h7.56V6.69l4.75-1.44v10.08h10.37v4.61Z"/>
        <path d="M68.2,14.46c5.33,0,9.64,1.88,12.92,5.65,3.29,3.77,4.93,8.22,4.93,13.36,0,.53-.05,1.27-.14,2.23h-31.61c.48,3.65,2.03,6.54,4.64,8.68,2.62,2.14,5.84,3.2,9.68,3.2,2.74,0,5.1-.56,7.09-1.69,1.99-1.13,3.49-2.6,4.5-4.43l4.18,2.45c-1.58,2.54-3.74,4.56-6.48,6.05-2.74,1.49-5.86,2.23-9.36,2.23-5.66,0-10.27-1.77-13.82-5.33-3.55-3.55-5.33-8.06-5.33-13.54s1.75-9.86,5.26-13.46c3.5-3.6,8.02-5.4,13.54-5.4ZM68.2,19.07c-3.74,0-6.88,1.12-9.4,3.35-2.52,2.23-4.02,5.12-4.5,8.68h26.86c-.48-3.79-1.94-6.74-4.39-8.86-2.45-2.11-5.3-3.17-8.57-3.17Z"/>
        <path d="M110.53,4.67c-3.5-.29-6.11.31-7.81,1.8-1.7,1.49-2.56,3.96-2.56,7.42v1.44h10.37v4.61h-10.37v31.39h-4.75v-31.39h-6.12v-4.61h6.12v-1.44c0-4.7,1.31-8.27,3.92-10.69,2.62-2.42,6.35-3.47,11.2-3.13v4.61Z"/>
      </g>
      <g>
        <path d="M16.43,55.53h3.16v33.48h-3.16v-4.69c-2.2,3.51-5.42,5.26-9.66,5.26-3.41,0-6.32-1.21-8.73-3.63-2.41-2.42-3.61-5.39-3.61-8.9s1.2-6.47,3.61-8.9c2.41-2.42,5.32-3.63,8.73-3.63,4.24,0,7.46,1.75,9.66,5.26v-14.25ZM.32,83.77c1.82,1.83,4.05,2.75,6.7,2.75s4.88-.92,6.7-2.75c1.82-1.83,2.73-4.07,2.73-6.72s-.91-4.89-2.73-6.72c-1.82-1.83-4.05-2.75-6.7-2.75s-4.88.92-6.7,2.75c-1.82,1.83-2.73,4.07-2.73,6.72s.91,4.89,2.73,6.72Z"/>
        <path d="M43.12,65.09h3.16v23.91h-3.16v-3.73c-1.79,2.87-4.46,4.3-8.03,4.3-2.9,0-5.19-.88-6.86-2.65s-2.51-4.15-2.51-7.15v-14.68h3.16v14.68c0,2.14.57,3.79,1.7,4.97,1.13,1.18,2.73,1.77,4.81,1.77,2.3,0,4.16-.72,5.6-2.18,1.43-1.45,2.15-3.69,2.15-6.72v-12.53Z"/>
      </g>
      <g>
        <path d="M69.3,90.1h3.73v28.27h-3.73v-5.54c-2.6,4.15-6.41,6.22-11.42,6.22-4.03,0-7.47-1.43-10.32-4.3-2.85-2.86-4.27-6.37-4.27-10.52s1.42-7.65,4.27-10.52c2.85-2.86,6.28-4.3,10.32-4.3,5.01,0,8.82,2.07,11.42,6.22v-5.54ZM50.24,112.18c2.15,2.17,4.79,3.25,7.92,3.25s5.77-1.08,7.92-3.25c2.15-2.17,3.22-4.81,3.22-7.94s-1.07-5.78-3.22-7.94c-2.15-2.17-4.79-3.25-7.92-3.25s-5.77,1.08-7.92,3.25c-2.15,2.17-3.22,4.82-3.22,7.94s1.07,5.78,3.22,7.94Z"/>
        <path d="M84.68,94.8c1.73-3.43,4.71-5.15,8.93-5.15v3.62c-2.56,0-4.69.75-6.39,2.26-1.7,1.51-2.54,3.88-2.54,7.12v15.72h-3.73v-28.27h3.73v4.69Z"/>
        <path d="M114.25,93.72h-8.14v17.13c0,1.55.3,2.65.9,3.31.6.66,1.51,1,2.71,1.02,1.21.02,2.71,0,4.52-.08v3.28c-3.96.6-6.93.32-8.91-.85s-2.97-3.39-2.97-6.67v-17.13h-5.94v-3.62h5.94v-6.78l3.73-1.13v7.92h8.14v3.62Z"/>
      </g>
    </g>
  </g>
</svg>